<svg width="85" height="73" viewBox="0 0 85 73" fill="none" xmlns="http://www.w3.org/2000/svg">
<path d="M24.2818 65.37C22.2704 66.9156 19.7842 67.872 17.0562 67.872C10.482 67.872 5.1324 62.5271 5.1324 55.9586C5.1324 49.3888 10.482 44.0437 17.0562 44.0437C22.018 44.0437 26.2734 47.0919 28.0676 51.4084L31.8015 47.5392C28.8611 42.4115 23.3947 38.916 17.0562 38.916C7.63485 38.916 0 46.5459 0 55.9586C0 65.37 7.63485 72.9999 17.0562 72.9999C21.4888 72.9999 25.4881 71.269 28.522 68.498C27.3576 68.1076 26.2532 67.4883 25.3094 66.5802C24.9201 66.2044 24.5841 65.7938 24.2818 65.37Z" fill="#E9AD28"/>
<path d="M50.1809 39.0465L41.1493 33.8052C45.1771 31.2865 43.6836 32.2193 47.7115 29.7004L47.5847 30.9824C47.3673 33.1643 48.9767 35.1609 51.0028 35.5711C51.0512 35.5811 66.8577 38.2653 67.4341 38.2653C69.4875 38.2653 71.3003 36.783 71.6474 34.6915C72.0351 32.3629 70.4598 30.1626 68.1292 29.7773L56.4926 27.8458L57.0459 22.2976C57.6037 18.7522 57.8459 17.6405 56.521 15.5253L54.8553 12.8647C52.7034 9.43091 48.1659 8.38094 44.7209 10.5359L26.4904 21.94C22.0129 24.7411 19.8293 30.6471 23.4848 34.9916C24.9129 36.6893 38.798 45.2144 38.798 45.2144L27.5526 56.8689C25.5845 58.9069 25.6431 62.1538 27.6846 64.1184C28.6804 65.0779 29.9635 65.5554 31.2465 65.5554C32.5916 65.5554 33.9348 65.0314 34.9405 63.9862L51.2967 47.0389C53.6042 44.6533 53.063 40.7189 50.1809 39.0465Z" fill="#E9AD28"/>
<path d="M69.3404 15.7672C73.3386 13.2651 74.5498 8.0002 72.0469 4.00742C69.5444 0.0112204 64.2748 -1.19898 60.2771 1.30162C56.2806 3.80221 55.0694 9.06521 57.5706 13.058C60.0729 17.0544 65.3426 18.2663 69.3404 15.7672Z" fill="#E9AD28"/>
<path d="M67.9437 38.916C58.4242 38.916 50.8875 46.7631 50.8875 55.9586C50.8875 65.37 58.5226 72.9999 67.9437 72.9999C77.363 72.9999 85 65.37 85 55.9586C85 46.5459 77.363 38.916 67.9437 38.916ZM67.9437 67.872C61.3694 67.872 56.0199 62.5271 56.0199 55.9586C56.0199 49.3888 61.3696 44.0437 67.9437 44.0437C74.518 44.0437 79.8676 49.3888 79.8676 55.9586C79.8678 62.5271 74.518 67.872 67.9437 67.872Z" fill="#E9AD28"/>
</svg>
