<svg width="80" height="73" viewBox="0 0 80 73" fill="none" xmlns="http://www.w3.org/2000/svg">
<path d="M79.9875 35.9952C79.8571 33.4008 78.713 30.96 76.7996 29.1936C74.8862 27.4273 72.355 26.4755 69.7464 26.5414C67.1377 26.6073 64.6582 27.6856 62.8373 29.5463C61.0163 31.4069 59.9981 33.9024 60 36.5V53.0909C60 52.2109 59.6488 51.3669 59.0237 50.7446C58.3985 50.1223 57.5507 49.7727 56.6666 49.7727H23.3333C22.4493 49.7727 21.6014 50.1223 20.9763 50.7446C20.3512 51.3669 20 52.2109 20 53.0909V36.5C19.9999 34.6751 19.4958 32.8852 18.5428 31.3262C17.5898 29.7672 16.2247 28.4989 14.5965 27.6601C12.9684 26.8212 11.1399 26.444 9.311 26.5698C7.48206 26.6955 5.72304 27.3193 4.2262 28.373C2.72936 29.4267 1.5523 30.8697 0.823683 32.5444C0.0950627 34.219 -0.157078 36.0608 0.0948202 37.8684C0.346718 39.6761 1.09296 41.38 2.25198 42.794C3.411 44.208 4.9382 45.2776 6.66664 45.8859V63.0454C6.66664 63.9255 7.01783 64.7695 7.64295 65.3918C8.26807 66.014 9.11592 66.3636 9.99998 66.3636H13.3333V73H20V66.3636H60V73H66.6666V66.3636H70C70.884 66.3636 71.7319 66.014 72.357 65.3918C72.9821 64.7695 73.3333 63.9255 73.3333 63.0454V45.8859C75.3647 45.1706 77.1097 43.8215 78.3087 42.0394C79.5076 40.2573 80.0965 38.1374 79.9875 35.9952Z" fill="#E9AD28"/>
<path d="M23.3333 36.5V46.4545H56.6667V36.5C56.6704 33.5583 57.6541 30.7009 59.4636 28.3752C61.2731 26.0495 63.8064 24.3868 66.6667 23.6474V16.5909C66.6617 12.1922 64.9041 7.97515 61.7796 4.86482C58.6551 1.75449 54.4187 0.00494017 50 0H30C25.5812 0.00494017 21.3449 1.75449 18.2203 4.86482C15.0958 7.97515 13.3383 12.1922 13.3333 16.5909V23.6474C16.1936 24.3868 18.7268 26.0495 20.5363 28.3752C22.3459 30.7009 23.3295 33.5583 23.3333 36.5ZM46.6666 13.2727C47.3259 13.2727 47.9704 13.4673 48.5186 13.8319C49.0667 14.1965 49.494 14.7148 49.7463 15.3211C49.9985 15.9274 50.0646 16.5946 49.9359 17.2382C49.8073 17.8819 49.4898 18.4732 49.0237 18.9372C48.5575 19.4013 47.9636 19.7173 47.317 19.8453C46.6703 19.9734 46.0001 19.9076 45.391 19.6565C44.7819 19.4054 44.2614 18.9801 43.8951 18.4344C43.5288 17.8887 43.3333 17.2472 43.3333 16.5909C43.3333 15.7109 43.6845 14.8669 44.3096 14.2446C44.9347 13.6223 45.7826 13.2727 46.6666 13.2727ZM46.6666 23.2273C47.3259 23.2273 47.9704 23.4219 48.5186 23.7865C49.0667 24.1511 49.494 24.6693 49.7463 25.2756C49.9985 25.8819 50.0646 26.5491 49.9359 27.1928C49.8073 27.8364 49.4898 28.4277 49.0237 28.8917C48.5575 29.3558 47.9636 29.6718 47.317 29.7999C46.6703 29.9279 46.0001 29.8622 45.391 29.611C44.7819 29.3599 44.2614 28.9346 43.8951 28.3889C43.5288 27.8433 43.3333 27.2017 43.3333 26.5454C43.3333 25.6654 43.6845 24.8214 44.3096 24.1991C44.9347 23.5769 45.7826 23.2273 46.6666 23.2273ZM33.3333 13.2727C33.9926 13.2727 34.6371 13.4673 35.1852 13.8319C35.7334 14.1965 36.1606 14.7148 36.4129 15.3211C36.6652 15.9274 36.7312 16.5946 36.6026 17.2382C36.474 17.8819 36.1565 18.4732 35.6903 18.9372C35.2242 19.4013 34.6302 19.7173 33.9836 19.8453C33.337 19.9734 32.6668 19.9076 32.0577 19.6565C31.4486 19.4054 30.928 18.9801 30.5618 18.4344C30.1955 17.8887 30 17.2472 30 16.5909C30 15.7109 30.3512 14.8669 30.9763 14.2446C31.6014 13.6223 32.4493 13.2727 33.3333 13.2727ZM33.3333 23.2273C33.9926 23.2273 34.6371 23.4219 35.1852 23.7865C35.7334 24.1511 36.1606 24.6693 36.4129 25.2756C36.6652 25.8819 36.7312 26.5491 36.6026 27.1928C36.474 27.8364 36.1565 28.4277 35.6903 28.8917C35.2242 29.3558 34.6302 29.6718 33.9836 29.7999C33.337 29.9279 32.6668 29.8622 32.0577 29.611C31.4486 29.3599 30.928 28.9346 30.5618 28.3889C30.1955 27.8433 30 27.2017 30 26.5454C30 25.6654 30.3512 24.8214 30.9763 24.1991C31.6014 23.5769 32.4493 23.2273 33.3333 23.2273Z" fill="#E9AD28"/>
</svg>
