<svg width="74" height="74" viewBox="0 0 74 74" fill="none" xmlns="http://www.w3.org/2000/svg">
<g filter="url(#filter0_d)">
<circle cx="35" cy="33" r="33" fill="#E9AD28"/>
</g>
<path d="M36.3623 44.9392L57.5388 23.622C58.2323 22.9236 58.2289 21.795 57.5304 21.1004C56.832 20.4063 55.7027 20.4103 55.0088 21.1088L35.0926 41.1571L15.0996 21.1849C14.4029 20.4892 13.2743 20.4896 12.5785 21.1862C12.2297 21.5357 12.0558 21.9931 12.0567 22.4501C12.0576 22.906 12.232 23.3609 12.5797 23.7085L33.8376 44.944C34.1723 45.2791 34.6273 45.4666 35.1009 45.4657C35.5746 45.4648 36.0283 45.275 36.3623 44.9392Z" fill="black"/>
<defs>
<filter id="filter0_d" x="0" y="0" width="74" height="74" filterUnits="userSpaceOnUse" color-interpolation-filters="sRGB">
<feFlood flood-opacity="0" result="BackgroundImageFix"/>
<feColorMatrix in="SourceAlpha" type="matrix" values="0 0 0 0 0 0 0 0 0 0 0 0 0 0 0 0 0 0 127 0"/>
<feOffset dx="2" dy="4"/>
<feGaussianBlur stdDeviation="2"/>
<feColorMatrix type="matrix" values="0 0 0 0 0 0 0 0 0 0 0 0 0 0 0 0 0 0 0.3 0"/>
<feBlend mode="normal" in2="BackgroundImageFix" result="effect1_dropShadow"/>
<feBlend mode="normal" in="SourceGraphic" in2="effect1_dropShadow" result="shape"/>
</filter>
</defs>
</svg>
