<svg width="83" height="73" viewBox="0 0 83 73" fill="none" xmlns="http://www.w3.org/2000/svg">
<g clip-path="url(#clip0)">
<path d="M52.6079 56.666L42.1595 42.8816H46.042C46.9396 42.8816 47.7636 42.4471 48.1864 41.7516C48.6092 41.0561 48.5615 40.2124 48.0653 39.5565L37.6169 25.7721H41.4994C42.3805 25.7721 43.1902 25.3543 43.6224 24.6777C44.0521 24.0031 44.0332 23.176 43.5724 22.516L28.662 0.986773C27.7786 -0.283026 25.3992 -0.283026 24.5159 0.986773L9.6054 22.516C9.14469 23.176 9.12572 24.0031 9.55547 24.6777C9.98765 25.3543 10.7974 25.7721 11.6785 25.7721H15.561L5.11255 39.5565C4.61617 40.2124 4.56884 41.0561 4.99145 41.7516C5.41407 42.4471 6.23807 42.8816 7.13583 42.8816H11.0183L0.407819 56.666C-0.0885587 57.3218 -0.135895 58.1656 0.286724 58.8611C0.709342 59.5566 1.53334 59.9911 2.4311 59.9911H50.5848C51.4824 59.9911 52.3064 59.5566 52.729 58.8611C53.1516 58.1656 53.1041 57.3217 52.6079 56.666Z" fill="#E9AD28"/>
<path d="M19.6152 64.2682V70.8268C19.6152 72.0089 20.7028 72.9654 22.0469 72.9654H31.7734C33.1175 72.9654 34.2051 72.0089 34.2051 70.8268V64.2682H19.6152Z" fill="#E9AD28"/>
<path d="M48.7948 64.2682V70.8268C48.7948 72.0089 49.8824 72.9654 51.2264 72.9654H60.953C62.297 72.9654 63.3846 72.0089 63.3846 70.8268V64.2682H48.7948Z" fill="#E9AD28"/>
<path d="M82.5919 56.666L71.6604 42.8818H75.5429C76.4405 42.8818 77.2645 42.4474 77.6873 41.7519C78.1101 41.0564 78.0648 40.2126 77.5662 39.5568L67.1178 25.7723H71.0003C71.8813 25.7723 72.6911 25.3546 73.1233 24.6779C73.553 24.0034 73.534 23.1763 73.0733 22.5163L58.1629 0.987017C57.2795 -0.282782 54.9001 -0.282782 54.0168 0.987017L44.3528 14.9913L48.0398 20.2795C49.4195 22.2574 49.4764 24.7448 48.187 26.7687C47.6598 27.5936 46.9426 28.2913 46.0997 28.8279L52.4328 37.1841C53.9265 39.1578 54.0665 41.6807 52.7961 43.7672C52.2642 44.6444 51.5232 45.3796 50.6447 45.9414L56.9756 54.2935C58.2664 55.9993 58.4811 58.1011 57.7128 59.991H80.5686C81.4662 59.991 82.2902 59.5566 82.713 58.8611C83.1358 58.1656 83.0881 57.3218 82.5919 56.666Z" fill="#E9AD28"/>
</g>
<defs>
<clipPath id="clip0">
<rect width="83" height="73" fill="white"/>
</clipPath>
</defs>
</svg>
