<svg width="73" height="73" viewBox="0 0 73 73" fill="none" xmlns="http://www.w3.org/2000/svg">
<path d="M72.0252 14.0133C71.6999 13.698 71.3015 13.4432 70.8548 13.2646C70.4081 13.0861 69.9228 12.9877 69.4293 12.9756C61.7619 12.8055 52.0599 5.84821 45.6454 3.11803C41.6831 1.43682 39.0672 0.328307 37.1027 0.0362931C36.7038 -0.01303 36.2986 -0.0120747 35.9 0.0391282C33.9356 0.331142 31.3196 1.43966 27.3607 3.12086C20.9461 5.84821 11.2442 12.8055 3.57678 12.9756C3.0829 12.9883 2.59735 13.087 2.15025 13.2655C1.70314 13.444 1.304 13.6985 0.977561 14.0133C0.300938 14.6629 -0.0481649 15.5119 0.00535866 16.3777C1.65242 44.7938 13.663 62.3798 34.7374 72.6003C35.2853 72.8639 35.8933 73 36.498 73C37.1027 73 37.7108 72.8639 38.262 72.6003C59.3364 62.3798 71.3436 44.7938 72.994 16.3777C73.0507 15.512 72.7025 14.6624 72.0252 14.0133ZM55.2672 25.1892L37.4836 47.4587C36.8455 48.2582 35.8432 48.7884 34.851 48.7884C33.8554 48.7884 32.7495 48.3263 32.0513 47.7337L19.5162 37.0937C19.107 36.7451 18.8772 36.2731 18.8772 35.781C18.8772 35.289 19.107 34.817 19.5162 34.4684L22.6132 31.8346C23.0249 31.4887 23.5808 31.2946 24.1601 31.2946C24.7394 31.2946 25.2953 31.4887 25.7069 31.8346L33.8587 38.7522L48.0208 21.0131C48.3485 20.6071 48.8521 20.3277 49.4217 20.2358C49.9913 20.1439 50.5807 20.247 51.061 20.5226L54.6859 22.6092C55.1648 22.8869 55.4947 23.314 55.6037 23.7974C55.7126 24.2808 55.5916 24.7812 55.2672 25.1892Z" fill="#E9AD28"/>
</svg>
