<svg width="17" height="17" viewBox="0 0 17 17" fill="none" xmlns="http://www.w3.org/2000/svg">
<path d="M0.354872 3.15948C2.68806 5.13543 6.78207 8.61173 7.98535 9.69565C8.14688 9.84194 8.32013 9.91631 8.5 9.91631C8.67949 9.91631 8.85245 9.84264 9.01361 9.69704C10.2179 8.61206 14.3119 5.13543 16.6452 3.15948C16.7904 3.03669 16.8126 2.82087 16.695 2.67076C16.4231 2.32389 16.0177 2.125 15.5833 2.125H1.41667C0.982279 2.125 0.576902 2.32389 0.305068 2.67079C0.187462 2.82087 0.209609 3.03669 0.354872 3.15948Z" fill="#E9AD28"/>
<path d="M16.7946 4.23028C16.669 4.17185 16.5213 4.19223 16.4169 4.28148C13.8294 6.47495 10.5271 9.28652 9.48812 10.2228C8.90498 10.7492 8.09565 10.7492 7.51114 10.2221C6.40369 9.22423 2.6953 6.07166 0.583113 4.28145C0.477959 4.1922 0.329939 4.17251 0.205428 4.23025C0.0802519 4.28839 0 4.4136 0 4.55159V13.4583C0 14.2397 0.635342 14.875 1.41668 14.875H15.5834C16.3647 14.875 17 14.2397 17 13.4583V4.55159C17 4.4136 16.9197 4.28806 16.7946 4.23028Z" fill="#E9AD28"/>
</svg>
