<svg width="30" height="30" viewBox="0 0 30 30" fill="none" xmlns="http://www.w3.org/2000/svg">
<g clip-path="url(#clip0)">
<path d="M15.005 7.29736C10.7512 7.29736 7.3075 10.7449 7.3075 14.9949C7.3075 19.2486 10.755 22.6924 15.005 22.6924C19.2587 22.6924 22.7025 19.2449 22.7025 14.9949C22.7025 10.7411 19.255 7.29736 15.005 7.29736ZM15.005 19.9911C12.2437 19.9911 10.0087 17.7549 10.0087 14.9949C10.0087 12.2349 12.245 9.99861 15.005 9.99861C17.765 9.99861 20.0012 12.2349 20.0012 14.9949C20.0025 17.7549 17.7662 19.9911 15.005 19.9911Z" fill="#E9AD28"/>
<path d="M21.1843 0.095454C18.4243 -0.033296 11.5881 -0.027046 8.82559 0.095454C6.39809 0.209204 4.25684 0.795454 2.53059 2.5217C-0.354412 5.4067 0.014338 9.29421 0.014338 14.9955C0.014338 20.8305 -0.310662 24.628 2.53059 27.4692C5.42684 30.3642 9.37059 29.9855 15.0043 29.9855C20.7843 29.9855 22.7793 29.9892 24.8231 29.198C27.6018 28.1192 29.6993 25.6355 29.9043 21.1742C30.0343 18.413 30.0268 11.578 29.9043 8.81546C29.6568 3.5492 26.8306 0.355454 21.1843 0.095454ZM25.5531 25.5605C23.6618 27.4517 21.0381 27.283 14.9681 27.283C8.71809 27.283 6.21184 27.3755 4.38309 25.5417C2.27684 23.4455 2.65809 20.0792 2.65809 14.9755C2.65809 8.0692 1.94934 3.09545 8.88059 2.74045C10.4731 2.6842 10.9418 2.66545 14.9506 2.66545L15.0068 2.70295C21.6681 2.70295 26.8943 2.00545 27.2081 8.93545C27.2793 10.5167 27.2956 10.9917 27.2956 14.9942C27.2943 21.1717 27.4118 23.693 25.5531 25.5605Z" fill="#E9AD28"/>
<path d="M23.0075 8.79257C24.0009 8.79257 24.8062 7.98724 24.8062 6.99382C24.8062 6.0004 24.0009 5.19507 23.0075 5.19507C22.0141 5.19507 21.2087 6.0004 21.2087 6.99382C21.2087 7.98724 22.0141 8.79257 23.0075 8.79257Z" fill="#E9AD28"/>
</g>
<defs>
<clipPath id="clip0">
<rect width="30" height="30" fill="white"/>
</clipPath>
</defs>
</svg>
