<svg width="34" height="36" viewBox="0 0 34 36" fill="none" xmlns="http://www.w3.org/2000/svg">
<path d="M32.9445 15.3429L17.026 36L1.07277 15.36L1.2285 15.2229C1.59186 14.8629 2.02443 14.5714 2.457 14.3314L14.8285 30.3257L11.1084 18.8571L12.2504 16.8171L17.026 31.5086L21.7496 16.8L22.9089 18.8571L19.2234 30.3257L31.5776 14.3143C32.0102 14.5714 32.4254 14.8114 32.7715 15.1714L32.9445 15.3429ZM4.91399 12C7.50941 12 9.77608 13.4743 10.97 15.6C11.5559 14.5129 12.4287 13.6039 13.4952 12.9699C14.5618 12.3358 15.7821 12.0006 17.026 12C19.6214 12 21.8707 13.4571 23.0819 15.5829C23.6642 14.4941 24.5366 13.5844 25.6044 12.9527C26.6721 12.3209 27.8943 11.9914 29.1379 12C31.0239 12 32.7542 12.72 34 13.9543C32.4947 6 25.4697 0 17.026 0C8.53028 0 1.50534 6 0 14.0057C1.2631 12.7714 2.99338 12 4.91399 12Z" fill="#E9AD28"/>
</svg>
