<svg width="93" height="73" viewBox="0 0 93 73" fill="none" xmlns="http://www.w3.org/2000/svg">
<path d="M40.6875 73C40.6875 73 34.875 73 34.875 66.9167C34.875 60.8333 40.6875 42.5833 63.9375 42.5833C87.1875 42.5833 93 60.8333 93 66.9167C93 73 87.1875 73 87.1875 73H40.6875ZM63.9375 36.5C68.5622 36.5 72.9975 34.5772 76.2677 31.1547C79.5378 27.7322 81.375 23.0902 81.375 18.25C81.375 13.4098 79.5378 8.76784 76.2677 5.3453C72.9975 1.92276 68.5622 0 63.9375 0C59.3128 0 54.8775 1.92276 51.6073 5.3453C48.3372 8.76784 46.5 13.4098 46.5 18.25C46.5 23.0902 48.3372 27.7322 51.6073 31.1547C54.8775 34.5772 59.3128 36.5 63.9375 36.5Z" fill="#E9AD28"/>
<path fill-rule="evenodd" clip-rule="evenodd" d="M30.318 72.9996C29.4563 71.1005 29.0266 69.0183 29.0625 66.9163C29.0625 58.6733 33.015 50.1871 40.3155 44.2863C36.6716 43.1112 32.8752 42.5365 29.0625 42.5829C5.8125 42.5829 0 60.8329 0 66.9163C0 72.9996 5.8125 72.9996 5.8125 72.9996H30.318Z" fill="#E9AD28"/>
<path d="M26.1562 36.5C30.0102 36.5 33.7063 34.8977 36.4314 32.0456C39.1565 29.1935 40.6875 25.3252 40.6875 21.2917C40.6875 17.2582 39.1565 13.3899 36.4314 10.5378C33.7063 7.68568 30.0102 6.08337 26.1562 6.08337C22.3023 6.08337 18.6062 7.68568 15.8811 10.5378C13.156 13.3899 11.625 17.2582 11.625 21.2917C11.625 25.3252 13.156 29.1935 15.8811 32.0456C18.6062 34.8977 22.3023 36.5 26.1562 36.5Z" fill="#E9AD28"/>
</svg>
