<svg width="20" height="20" viewBox="0 0 20 20" fill="none" xmlns="http://www.w3.org/2000/svg">
<g clip-path="url(#clip0)">
<path d="M10 8.07154C11.8769 8.07154 13.3984 6.55 13.3984 4.6731C13.3984 2.79619 11.8769 1.27466 10 1.27466C8.12309 1.27466 6.60156 2.79619 6.60156 4.6731C6.60156 6.55 8.12309 8.07154 10 8.07154Z" fill="#E9AD28"/>
<path d="M16.875 8.07151C18.0615 8.07151 19.0234 7.10962 19.0234 5.92307C19.0234 4.73652 18.0615 3.77463 16.875 3.77463C15.6885 3.77463 14.7266 4.73652 14.7266 5.92307C14.7266 7.10962 15.6885 8.07151 16.875 8.07151Z" fill="#E9AD28"/>
<path d="M3.125 8.07151C4.31155 8.07151 5.27344 7.10962 5.27344 5.92307C5.27344 4.73652 4.31155 3.77463 3.125 3.77463C1.93845 3.77463 0.976562 4.73652 0.976562 5.92307C0.976562 7.10962 1.93845 8.07151 3.125 8.07151Z" fill="#E9AD28"/>
<path d="M5.2418 10.0008C4.39609 9.30793 3.6302 9.39965 2.65234 9.39965C1.18984 9.39965 0 10.5825 0 12.036V16.302C0 16.9332 0.515234 17.4465 1.14883 17.4465C3.88422 17.4465 3.55469 17.496 3.55469 17.3286C3.55469 14.3057 3.19664 12.0888 5.2418 10.0008Z" fill="#E9AD28"/>
<path d="M10.9301 9.41525C9.22213 9.27279 7.73756 9.41689 6.45705 10.4738C4.3142 12.1903 4.72659 14.5013 4.72659 17.3285C4.72659 18.0765 5.33518 18.6965 6.09455 18.6965C14.3399 18.6965 14.6681 18.9625 15.1571 17.8797C15.3174 17.5135 15.2735 17.6299 15.2735 14.127C15.2735 11.3447 12.8644 9.41525 10.9301 9.41525Z" fill="#E9AD28"/>
<path d="M17.3477 9.39961C16.3645 9.39961 15.6028 9.30883 14.7582 10.0008C16.7881 12.0733 16.4453 14.1389 16.4453 17.3285C16.4453 17.497 16.1718 17.4465 18.8102 17.4465C19.4664 17.4465 20 16.9148 20 16.2613V12.0359C20 10.5824 18.8102 9.39961 17.3477 9.39961Z" fill="#E9AD28"/>
</g>
<defs>
<clipPath id="clip0">
<rect width="20" height="20" fill="white"/>
</clipPath>
</defs>
</svg>
