<svg width="97" height="73" viewBox="0 0 97 73" fill="none" xmlns="http://www.w3.org/2000/svg">
<path d="M97 67.3285V69.5971C97 71.4769 95.5365 73 93.7303 73H3.26966C1.4635 73 0 71.4769 0 69.5971V67.3285C0 65.4487 1.4635 63.9256 3.26966 63.9256H93.7303C95.5365 63.9256 97 65.4492 97 67.3285ZM94.0573 56.5109C94.0573 58.3907 92.5938 59.9138 90.7876 59.9138H6.21236C4.4062 59.9138 2.9427 58.3907 2.9427 56.5109C2.9427 32.8031 19.7488 13.1039 41.6128 9.63838C41.4157 8.95599 41.3067 8.23457 41.3067 7.48639C41.3067 3.35844 44.5337 0 48.5 0C52.4663 0 55.6933 3.35844 55.6933 7.48639C55.6933 8.23457 55.5843 8.95599 55.3872 9.63838C77.2512 13.1034 94.0573 32.8031 94.0573 56.5109ZM45.1501 19.3888C44.7098 17.5658 42.9346 16.4628 41.1821 16.9174C40.6624 17.0535 28.3558 20.3589 20.4254 30.132C13.7012 38.4188 12.8489 48.77 12.8162 49.2064C12.6745 51.0799 14.019 52.7182 15.8195 52.8652C15.9067 52.8725 15.993 52.8757 16.0793 52.8757C17.7691 52.8757 19.2008 51.5227 19.3355 49.7396C19.342 49.6543 20.0409 41.1543 25.4223 34.5227C31.9446 26.4846 42.6059 23.564 42.7798 23.5168C44.5289 23.0576 45.5896 21.2105 45.1501 19.3888Z" fill="#E9AD28"/>
</svg>
